<?xml version="1.0" standalone="no"?><!DOCTYPE svg PUBLIC "-//W3C//DTD SVG 1.1//EN" "http://www.w3.org/Graphics/SVG/1.1/DTD/svg11.dtd"><svg t="1551921705652" class="icon" style="" viewBox="0 0 1024 1024" version="1.1" xmlns="http://www.w3.org/2000/svg" p-id="7815" xmlns:xlink="http://www.w3.org/1999/xlink" width="200" height="200"><defs><style type="text/css"></style></defs><path d="M-71.719-111.882v0 0z" p-id="7816"></path><path d="M424.931 22.299h94.149v375.426q0 9.415-10.582 18.227t-25.909 15.892-31.785 10.582-25.909 3.539v516.647q0 19.997-13.52 33.554t-33.554 13.52h-94.149q-19.997 0-33.554-13.52t-13.52-33.554v-516.647q-9.415 0-25.307-3.539t-31.182-10.582-26.474-15.892-11.184-18.227v-375.426h94.149v329.519h47.074v-329.519h94.149v329.519h47.074v-329.519zM754.45 22.299q140.054 0 140.054 141.223v799.092q0 19.997-12.955 33.554t-32.953 13.52h-94.149q-19.997 0-34.118-13.52t-14.122-33.554v-376.593h-92.981v-422.5q0-141.223 141.223-141.223z" p-id="7817"></path></svg>